<?xml version="1.0" encoding="utf-8"?>
<!-- Generator: Adobe Illustrator 20.1.0, SVG Export Plug-In . SVG Version: 6.00 Build 0)  -->
<svg version="1.1" id="Capa_1" xmlns="http://www.w3.org/2000/svg" xmlns:xlink="http://www.w3.org/1999/xlink" x="0px" y="0px"
	 viewBox="0 0 30 30" style="enable-background:new 0 0 30 30;" xml:space="preserve">
<style type="text/css">
	.st0{fill:#FAFAFA;}
</style>
<g>
	<g>
		<path class="st0" d="M14.5,28.3H6c-2.3,0-4.2-1.7-4.2-3.9V5.6c0-2.1,1.9-3.9,4.2-3.9h8.6c0.5,0,0.9-0.4,0.9-0.9S15.1,0,14.6,0H6
			C2.7,0,0,2.5,0,5.6v18.9C0,27.5,2.7,30,6,30h8.4c0.5,0,0.9-0.4,0.9-0.9C15.4,28.7,15,28.3,14.5,28.3z"/>
		<path class="st0" d="M29.7,14.4l-5.9-5.5c-0.4-0.3-0.9-0.3-1.3,0c-0.4,0.3-0.4,0.9,0,1.2l4.3,4H8c-0.5,0-0.9,0.4-0.9,0.9
			c0,0.5,0.4,0.9,0.9,0.9h18.8l-4.3,4c-0.4,0.3-0.4,0.9,0,1.2c0.2,0.2,0.4,0.3,0.7,0.3s0.5-0.1,0.7-0.3l5.9-5.5
			C30.1,15.3,30.1,14.7,29.7,14.4z"/>
	</g>
</g>
</svg>
